<svg width="284" height="103" viewBox="0 0 284 103" fill="none" xmlns="http://www.w3.org/2000/svg">
<path d="M51.85 22V21.75H51.6H38H37.75V22V80.8V81.05H38H51.6H51.85V80.8V22ZM50.65 22.95V79.75H39.05V22.95H50.65Z" fill="white" stroke="white" stroke-width="0.5"/>
<mask id="path-2-outside-1_9_60" maskUnits="userSpaceOnUse" x="64.6" y="21" width="55" height="61" fill="black">
<rect fill="white" x="64.6" y="21" width="55" height="61"/>
<path d="M91.1 22.7C106.4 22.7 115.9 30.6 115.9 43.3C115.9 51.6 111.8 58 104.3 61.2L103.4 61.6L103.9 62.4L116.3 80.1H103.5L92.4 64L92.1 63.7H91.7H91.1H79.2H78.4V64.5V80.1H66.3V22.7H91.1ZM78.5 54.3H79.3H90.4C98.8 54.3 103.7 50.3 103.7 43.3C103.7 36.2 99 32.3 90.4 32.3H79.2H78.4V33.1V53.6V54.3M91.1 22H65.6V80.8H79.2V64.4H91.1H91.8L103.1 80.8H117.7L104.5 61.9C112.1 58.6 116.6 52.1 116.6 43.3C116.6 30.1 106.8 22 91.1 22ZM79.2 53.6V33.1H90.3C98.6 33.1 102.8 36.9 102.8 43.4C102.8 49.8 98.6 53.7 90.3 53.7H79.2V53.6Z"/>
</mask>
<path d="M91.1 22.7C106.4 22.7 115.9 30.6 115.9 43.3C115.9 51.6 111.8 58 104.3 61.2L103.4 61.6L103.9 62.4L116.3 80.1H103.5L92.4 64L92.1 63.7H91.7H91.1H79.2H78.4V64.5V80.1H66.3V22.7H91.1ZM78.5 54.3H79.3H90.4C98.8 54.3 103.7 50.3 103.7 43.3C103.7 36.2 99 32.3 90.4 32.3H79.2H78.4V33.1V53.6V54.3M91.1 22H65.6V80.8H79.2V64.4H91.1H91.8L103.1 80.8H117.7L104.5 61.9C112.1 58.6 116.6 52.1 116.6 43.3C116.6 30.1 106.8 22 91.1 22ZM79.2 53.6V33.1H90.3C98.6 33.1 102.8 36.9 102.8 43.4C102.8 49.8 98.6 53.7 90.3 53.7H79.2V53.6Z" fill="white"/>
<path d="M104.3 61.2L104.104 60.7401L104.097 60.7431L104.3 61.2ZM103.4 61.6L103.197 61.1431L102.671 61.3769L102.976 61.865L103.4 61.6ZM103.9 62.4L103.476 62.665L103.483 62.6761L103.49 62.6869L103.9 62.4ZM116.3 80.1V80.6H117.261L116.71 79.8131L116.3 80.1ZM103.5 80.1L103.088 80.3838L103.237 80.6H103.5V80.1ZM92.4 64L92.8116 63.7162L92.7858 63.6787L92.7536 63.6464L92.4 64ZM92.1 63.7L92.4536 63.3464L92.3071 63.2H92.1V63.7ZM78.4 63.7V63.2H77.9V63.7H78.4ZM78.4 80.1V80.6H78.9V80.1H78.4ZM66.3 80.1H65.8V80.6H66.3V80.1ZM66.3 22.7V22.2H65.8V22.7H66.3ZM78.4 32.3V31.8H77.9V32.3H78.4ZM65.6 22V21.5H65.1V22H65.6ZM65.6 80.8H65.1V81.3H65.6V80.8ZM79.2 80.8V81.3H79.7V80.8H79.2ZM79.2 64.4V63.9H78.7V64.4H79.2ZM91.8 64.4L92.2117 64.1163L92.0627 63.9H91.8V64.4ZM103.1 80.8L102.688 81.0837L102.837 81.3H103.1V80.8ZM117.7 80.8V81.3H118.659L118.11 80.5137L117.7 80.8ZM104.5 61.9L104.301 61.4414L103.74 61.6849L104.09 62.1863L104.5 61.9ZM116.6 43.3H116.1H116.6ZM79.2 33.1V32.6H78.7V33.1H79.2ZM79.2 53.7H78.7V54.2H79.2V53.7ZM91.1 23.2C98.6689 23.2 104.744 25.1542 108.918 28.6221C113.081 32.0811 115.4 37.0849 115.4 43.3H116.4C116.4 36.8151 113.969 31.5189 109.557 27.8529C105.156 24.1958 98.8311 22.2 91.1 22.2V23.2ZM115.4 43.3C115.4 51.4079 111.412 57.6219 104.104 60.7401L104.496 61.6599C112.188 58.3781 116.4 51.7921 116.4 43.3H115.4ZM104.097 60.7431L103.197 61.1431L103.603 62.0569L104.503 61.6569L104.097 60.7431ZM102.976 61.865L103.476 62.665L104.324 62.135L103.824 61.335L102.976 61.865ZM103.49 62.6869L115.89 80.3869L116.71 79.8131L104.31 62.1131L103.49 62.6869ZM116.3 79.6H103.5V80.6H116.3V79.6ZM103.912 79.8162L92.8116 63.7162L91.9884 64.2838L103.088 80.3838L103.912 79.8162ZM92.7536 63.6464L92.4536 63.3464L91.7464 64.0536L92.0464 64.3536L92.7536 63.6464ZM92.1 63.2H91.7V64.2H92.1V63.2ZM91.7 63.2H91.1V64.2H91.7V63.2ZM91.1 63.2H79.2V64.2H91.1V63.2ZM79.2 63.2H78.4V64.2H79.2V63.2ZM77.9 63.7V64.5H78.9V63.7H77.9ZM77.9 64.5V80.1H78.9V64.5H77.9ZM78.4 79.6H66.3V80.6H78.4V79.6ZM66.8 80.1V22.7H65.8V80.1H66.8ZM66.3 23.2H91.1V22.2H66.3V23.2ZM78.5 54.8H79.3V53.8H78.5V54.8ZM79.3 54.8H90.4V53.8H79.3V54.8ZM90.4 54.8C94.672 54.8 98.1245 53.7835 100.518 51.8108C102.925 49.8269 104.2 46.9258 104.2 43.3H103.2C103.2 46.6742 102.025 49.2731 99.882 51.0392C97.7255 52.8165 94.528 53.8 90.4 53.8V54.8ZM104.2 43.3C104.2 39.6323 102.981 36.7281 100.594 34.7523C98.2221 32.7891 94.7666 31.8 90.4 31.8V32.8C94.6334 32.8 97.8279 33.7609 99.9562 35.5227C102.069 37.2719 103.2 39.8677 103.2 43.3H104.2ZM90.4 31.8H79.2V32.8H90.4V31.8ZM79.2 31.8H78.4V32.8H79.2V31.8ZM77.9 32.3V33.1H78.9V32.3H77.9ZM77.9 33.1V53.6H78.9V33.1H77.9ZM77.9 53.6V54.3H78.9V53.6H77.9ZM91.1 21.5H65.6V22.5H91.1V21.5ZM65.1 22V80.8H66.1V22H65.1ZM65.6 81.3H79.2V80.3H65.6V81.3ZM79.7 80.8V64.4H78.7V80.8H79.7ZM79.2 64.9H91.1V63.9H79.2V64.9ZM91.1 64.9H91.8V63.9H91.1V64.9ZM91.3883 64.6837L102.688 81.0837L103.512 80.5163L92.2117 64.1163L91.3883 64.6837ZM103.1 81.3H117.7V80.3H103.1V81.3ZM118.11 80.5137L104.91 61.6137L104.09 62.1863L117.29 81.0863L118.11 80.5137ZM104.699 62.3586C112.479 58.9805 117.1 52.3021 117.1 43.3H116.1C116.1 51.8979 111.721 58.2195 104.301 61.4414L104.699 62.3586ZM117.1 43.3C117.1 36.5662 114.595 31.0948 110.057 27.3158C105.531 23.5458 99.0309 21.5 91.1 21.5V22.5C98.8691 22.5 105.119 24.5042 109.418 28.0842C113.705 31.6552 116.1 36.8338 116.1 43.3H117.1ZM79.7 53.6V33.1H78.7V53.6H79.7ZM79.2 33.6H90.3V32.6H79.2V33.6ZM90.3 33.6C94.3824 33.6 97.3749 34.5354 99.3399 36.1945C101.291 37.8422 102.3 40.2634 102.3 43.4H103.3C103.3 40.0366 102.209 37.3078 99.9851 35.4305C97.7751 33.5646 94.5176 32.6 90.3 32.6V33.6ZM102.3 43.4C102.3 46.4847 101.293 48.9077 99.3386 50.5691C97.3724 52.2409 94.3794 53.2 90.3 53.2V54.2C94.5206 54.2 97.7776 53.2091 99.9864 51.3309C102.207 49.4423 103.3 46.7153 103.3 43.4H102.3ZM90.3 53.2H79.2V54.2H90.3V53.2ZM79.7 53.7V53.6H78.7V53.7H79.7Z" fill="white" mask="url(#path-2-outside-1_9_60)"/>
<mask id="path-4-outside-2_9_60" maskUnits="userSpaceOnUse" x="190.8" y="21" width="56" height="61" fill="black">
<rect fill="white" x="190.8" y="21" width="56" height="61"/>
<path d="M245.2 22.7V80H235.1L206 44.5L204.7 42.9V45V80H192.8V22.7H202.9L231.9 58.1L233.2 59.7V57.6V22.6H245.2M245.9 22H232.4V57.7L203.1 22H191.8V80.8H205.3V45.1L234.6 80.8H245.8V22H245.9Z"/>
</mask>
<path d="M245.2 22.7V80H235.1L206 44.5L204.7 42.9V45V80H192.8V22.7H202.9L231.9 58.1L233.2 59.7V57.6V22.6H245.2M245.9 22H232.4V57.7L203.1 22H191.8V80.8H205.3V45.1L234.6 80.8H245.8V22H245.9Z" fill="white"/>
<path d="M245.2 22.7V80H235.1L206 44.5L204.7 42.9V45V80H192.8V22.7H202.9L231.9 58.1L233.2 59.7V57.6V22.6H245.2M245.9 22H232.4V57.7L203.1 22H191.8V80.8H205.3V45.1L234.6 80.8H245.8V22H245.9Z" fill="white"/>
<path d="M245.2 80V80.5H245.7V80H245.2ZM235.1 80L234.713 80.317L234.863 80.5H235.1V80ZM206 44.5L205.612 44.8153L205.613 44.817L206 44.5ZM204.7 42.9L205.088 42.5847L204.2 41.4917V42.9H204.7ZM204.7 80V80.5H205.2V80H204.7ZM192.8 80H192.3V80.5H192.8V80ZM192.8 22.7V22.2H192.3V22.7H192.8ZM202.9 22.7L203.287 22.3831L203.137 22.2H202.9V22.7ZM231.9 58.1L232.288 57.7847L232.287 57.7831L231.9 58.1ZM233.2 59.7L232.812 60.0153L233.7 61.1083V59.7H233.2ZM233.2 22.6V22.1H232.7V22.6H233.2ZM232.4 22V21.5H231.9V22H232.4ZM232.4 57.7L232.013 58.0172L232.9 59.0973V57.7H232.4ZM203.1 22L203.486 21.6828L203.336 21.5H203.1V22ZM191.8 22V21.5H191.3V22H191.8ZM191.8 80.8H191.3V81.3H191.8V80.8ZM205.3 80.8V81.3H205.8V80.8H205.3ZM205.3 45.1L205.686 44.7828L204.8 43.7027V45.1H205.3ZM234.6 80.8L234.213 81.1172L234.364 81.3H234.6V80.8ZM245.8 80.8V81.3H246.3V80.8H245.8ZM245.8 22V21.5H245.3V22H245.8ZM244.7 22.7V80H245.7V22.7H244.7ZM245.2 79.5H235.1V80.5H245.2V79.5ZM235.487 79.683L206.387 44.183L205.613 44.817L234.713 80.317L235.487 79.683ZM206.388 44.1847L205.088 42.5847L204.312 43.2153L205.612 44.8153L206.388 44.1847ZM204.2 42.9V45H205.2V42.9H204.2ZM204.2 45V80H205.2V45H204.2ZM204.7 79.5H192.8V80.5H204.7V79.5ZM193.3 80V22.7H192.3V80H193.3ZM192.8 23.2H202.9V22.2H192.8V23.2ZM202.513 23.0169L231.513 58.4169L232.287 57.7831L203.287 22.3831L202.513 23.0169ZM231.512 58.4153L232.812 60.0153L233.588 59.3847L232.288 57.7847L231.512 58.4153ZM233.7 59.7V57.6H232.7V59.7H233.7ZM233.7 57.6V22.6H232.7V57.6H233.7ZM233.2 23.1H245.2V22.1H233.2V23.1ZM245.9 21.5H232.4V22.5H245.9V21.5ZM231.9 22V57.7H232.9V22H231.9ZM232.786 57.3828L203.486 21.6828L202.713 22.3172L232.013 58.0172L232.786 57.3828ZM203.1 21.5H191.8V22.5H203.1V21.5ZM191.3 22V80.8H192.3V22H191.3ZM191.8 81.3H205.3V80.3H191.8V81.3ZM205.8 80.8V45.1H204.8V80.8H205.8ZM204.913 45.4172L234.213 81.1172L234.986 80.4828L205.686 44.7828L204.913 45.4172ZM234.6 81.3H245.8V80.3H234.6V81.3ZM246.3 80.8V22H245.3V80.8H246.3ZM245.8 22.5H245.9V21.5H245.8V22.5Z" fill="white" mask="url(#path-4-outside-2_9_60)"/>
<path d="M155.3 64.1C155.3 64.4 155.3 64.8 155.3 65.4C155.4 73.6 155.5 80.8 155.5 80.8C162.2 77.1 167.9 72.2 173 66.5C174.2 65.1 175.6 63.4 176.5 61.8C177.2 60.5 177.9 59.5 178.4 58.1C180 53.8 180.9 49.3 180.1 44.5C173.5 53 165.4 51.4 155.6 61.8C155.5 61.9 155.4 62.1 155.4 62.3C154.4 62.7 154.2 62.7 153.2 62.3C153.1 62 153.1 61.9 153 61.7C143.2 51.3 135.1 52.9 128.5 44.4C127.7 49.2 128.6 53.7 130.2 58C130.7 59.4 131.4 60.5 132.1 61.7C133 63.3 134.4 65 135.6 66.4C140.7 72.1 146.4 77 153.1 80.7C153.2 75.6 153.2 70.4 153.3 65.3C153.3 64.9 153.3 64.4 153.3 64C154.1 64.1 154.7 64.1 155.3 64.1Z" fill="#FEFEFD"/>
<path d="M129.6 40.5C131 41.6 132.7 42.4 134.2 43.2C137.3 44.9 140.5 46.4 143.9 47.5C147.7 48.7 149.4 49.2 153.4 49.6C154.4 49.6 154.4 49.6 155.3 49.6C159.3 49.2 161 48.7 164.8 47.5C168.2 46.4 171.4 44.9 174.5 43.2C176 42.4 177.7 41.5 179.1 40.5C180 39.8 179.5 39.5 178.9 38.7C178.5 38 178 37.4 177.5 36.8C173.6 31.9 168.3 28.1 162.4 26.1C160.1 25.3 156.4 22.9 155.7 22.1C155.7 23.7 155.5 39.6 155.5 40.6C155.5 40.7 155.1 41.1 154.8 41.1C154.4 41.2 154.2 41.2 153.8 41.1C153.5 41 153.2 40.8 153 40.5C152.9 39.5 152.9 23.6 152.8 22C152.1 22.8 148.4 25.3 146.1 26C140.2 28 134.8 31.8 131 36.7C130.5 37.3 130.1 38 129.6 38.6C129.2 39.5 128.8 39.8 129.6 40.5Z" fill="#FEFEFD"/>
</svg>
